{
    "asset" : {
        "generator" : "Khronos glTF Blender I/O v1.3.48",
        "version" : "2.0"
    },
    "scene" : 0,
    "scenes" : [
        {
            "name" : "Scene",
            "nodes" : [
                0
            ]
        }
    ],
    "nodes" : [
        {
            "mesh" : 0,
            "name" : "Tile_+010_+012_L20"
        }
    ],
    "materials" : [
        {
            "alphaCutoff" : 0.5,
            "alphaMode" : "MASK",
            "emissiveFactor" : [
                0,
                0,
                0
            ],
            "name" : "Tile_+010_+012_L20",
            "pbrMetallicRoughness" : {
                "baseColorTexture" : {
                    "index" : 0,
                    "texCoord" : 0
                },
                "metallicFactor" : 0,
                "roughnessFactor" : 1
            }
        }
    ],
    "meshes" : [
        {
            "name" : "Tile_+010_+012_L20",
            "primitives" : [
                {
                    "attributes" : {
                        "POSITION" : 0,
                        "NORMAL" : 1,
                        "TEXCOORD_0" : 2
                    },
                    "indices" : 3,
                    "material" : 0
                }
            ]
        }
    ],
    "textures" : [
        {
            "source" : 0
        }
    ],
    "images" : [
        {
            "mimeType" : "image/png",
            "name" : "Tile_+010_+012_L20",
            "uri" : "Tile_010_012_L20.png"
        }
    ],
    "accessors" : [
        {
            "bufferView" : 0,
            "componentType" : 5126,
            "count" : 137057,
            "max" : [
                107.05500030517578,
                18.246000289916992,
                102.29501342773438
            ],
            "min" : [
                -111.51400756835938,
                -3.316620111465454,
                -105.91302490234375
            ],
            "type" : "VEC3"
        },
        {
            "bufferView" : 1,
            "componentType" : 5126,
            "count" : 137057,
            "type" : "VEC3"
        },
        {
            "bufferView" : 2,
            "componentType" : 5126,
            "count" : 137057,
            "type" : "VEC2"
        },
        {
            "bufferView" : 3,
            "componentType" : 5125,
            "count" : 276282,
            "type" : "SCALAR"
        }
    ],
    "bufferViews" : [
        {
            "buffer" : 0,
            "byteLength" : 1644684,
            "byteOffset" : 0
        },
        {
            "buffer" : 0,
            "byteLength" : 1644684,
            "byteOffset" : 1644684
        },
        {
            "buffer" : 0,
            "byteLength" : 1096456,
            "byteOffset" : 3289368
        },
        {
            "buffer" : 0,
            "byteLength" : 1105128,
            "byteOffset" : 4385824
        }
    ],
    "buffers" : [
        {
            "byteLength" : 5490952,
            "uri" : "Tile_010_012_L20.bin"
        }
    ]
}
