{
    "asset" : {
        "generator" : "Khronos glTF Blender I/O v1.3.48",
        "version" : "2.0"
    },
    "scene" : 0,
    "scenes" : [
        {
            "name" : "Scene",
            "nodes" : [
                0
            ]
        }
    ],
    "nodes" : [
        {
            "mesh" : 0,
            "name" : "Tile_+009_+007_L18"
        }
    ],
    "materials" : [
        {
            "alphaCutoff" : 0.5,
            "alphaMode" : "MASK",
            "emissiveFactor" : [
                0,
                0,
                0
            ],
            "name" : "Tile_+009_+007_L18",
            "pbrMetallicRoughness" : {
                "baseColorTexture" : {
                    "index" : 0,
                    "texCoord" : 0
                },
                "metallicFactor" : 0,
                "roughnessFactor" : 1
            }
        }
    ],
    "meshes" : [
        {
            "name" : "Tile_+009_+007_L18",
            "primitives" : [
                {
                    "attributes" : {
                        "POSITION" : 0,
                        "NORMAL" : 1,
                        "TEXCOORD_0" : 2
                    },
                    "indices" : 3,
                    "material" : 0
                }
            ]
        }
    ],
    "textures" : [
        {
            "source" : 0
        }
    ],
    "images" : [
        {
            "mimeType" : "image/png",
            "name" : "Tile_+009_+007_L18",
            "uri" : "Tile_009_007_L18.png"
        }
    ],
    "accessors" : [
        {
            "bufferView" : 0,
            "componentType" : 5126,
            "count" : 43036,
            "max" : [
                112.91999816894531,
                33.91429901123047,
                120.25701904296875
            ],
            "min" : [
                -107.97000122070312,
                3.4010701179504395,
                -115.59100341796875
            ],
            "type" : "VEC3"
        },
        {
            "bufferView" : 1,
            "componentType" : 5126,
            "count" : 43036,
            "type" : "VEC3"
        },
        {
            "bufferView" : 2,
            "componentType" : 5126,
            "count" : 43036,
            "type" : "VEC2"
        },
        {
            "bufferView" : 3,
            "componentType" : 5123,
            "count" : 71565,
            "type" : "SCALAR"
        }
    ],
    "bufferViews" : [
        {
            "buffer" : 0,
            "byteLength" : 516432,
            "byteOffset" : 0
        },
        {
            "buffer" : 0,
            "byteLength" : 516432,
            "byteOffset" : 516432
        },
        {
            "buffer" : 0,
            "byteLength" : 344288,
            "byteOffset" : 1032864
        },
        {
            "buffer" : 0,
            "byteLength" : 143130,
            "byteOffset" : 1377152
        }
    ],
    "buffers" : [
        {
            "byteLength" : 1520284,
            "uri" : "Tile_009_007_L18.bin"
        }
    ]
}
