{
    "asset" : {
        "generator" : "Khronos glTF Blender I/O v1.3.48",
        "version" : "2.0"
    },
    "scene" : 0,
    "scenes" : [
        {
            "name" : "Scene",
            "nodes" : [
                0
            ]
        }
    ],
    "nodes" : [
        {
            "mesh" : 0,
            "name" : "Tile_+009_+010_L20"
        }
    ],
    "materials" : [
        {
            "alphaCutoff" : 0.5,
            "alphaMode" : "MASK",
            "emissiveFactor" : [
                0,
                0,
                0
            ],
            "name" : "Tile_+009_+010_L20",
            "pbrMetallicRoughness" : {
                "baseColorTexture" : {
                    "index" : 0,
                    "texCoord" : 0
                },
                "metallicFactor" : 0,
                "roughnessFactor" : 1
            }
        }
    ],
    "meshes" : [
        {
            "name" : "Tile_+009_+010_L20",
            "primitives" : [
                {
                    "attributes" : {
                        "POSITION" : 0,
                        "NORMAL" : 1,
                        "TEXCOORD_0" : 2
                    },
                    "indices" : 3,
                    "material" : 0
                }
            ]
        }
    ],
    "textures" : [
        {
            "source" : 0
        }
    ],
    "images" : [
        {
            "mimeType" : "image/png",
            "name" : "Tile_+009_+010_L20",
            "uri" : "Tile_009_010_L20.png"
        }
    ],
    "accessors" : [
        {
            "bufferView" : 0,
            "componentType" : 5126,
            "count" : 118307,
            "max" : [
                115.41400146484375,
                20.490100860595703,
                107.30380249023438
            ],
            "min" : [
                -110.06698608398438,
                1.8730299472808838,
                -105.67599487304688
            ],
            "type" : "VEC3"
        },
        {
            "bufferView" : 1,
            "componentType" : 5126,
            "count" : 118307,
            "type" : "VEC3"
        },
        {
            "bufferView" : 2,
            "componentType" : 5126,
            "count" : 118307,
            "type" : "VEC2"
        },
        {
            "bufferView" : 3,
            "componentType" : 5125,
            "count" : 232155,
            "type" : "SCALAR"
        }
    ],
    "bufferViews" : [
        {
            "buffer" : 0,
            "byteLength" : 1419684,
            "byteOffset" : 0
        },
        {
            "buffer" : 0,
            "byteLength" : 1419684,
            "byteOffset" : 1419684
        },
        {
            "buffer" : 0,
            "byteLength" : 946456,
            "byteOffset" : 2839368
        },
        {
            "buffer" : 0,
            "byteLength" : 928620,
            "byteOffset" : 3785824
        }
    ],
    "buffers" : [
        {
            "byteLength" : 4714444,
            "uri" : "Tile_009_010_L20.bin"
        }
    ]
}
