{
    "asset" : {
        "generator" : "Khronos glTF Blender I/O v1.3.48",
        "version" : "2.0"
    },
    "scene" : 0,
    "scenes" : [
        {
            "name" : "Scene",
            "nodes" : [
                0
            ]
        }
    ],
    "nodes" : [
        {
            "mesh" : 0,
            "name" : "Tile_+006_+013_L19"
        }
    ],
    "materials" : [
        {
            "alphaCutoff" : 0.5,
            "alphaMode" : "MASK",
            "emissiveFactor" : [
                0,
                0,
                0
            ],
            "name" : "Tile_+006_+013_L19",
            "pbrMetallicRoughness" : {
                "baseColorTexture" : {
                    "index" : 0,
                    "texCoord" : 0
                },
                "metallicFactor" : 0,
                "roughnessFactor" : 1
            }
        }
    ],
    "meshes" : [
        {
            "name" : "Tile_+006_+013_L19",
            "primitives" : [
                {
                    "attributes" : {
                        "POSITION" : 0,
                        "NORMAL" : 1,
                        "TEXCOORD_0" : 2
                    },
                    "indices" : 3,
                    "material" : 0
                }
            ]
        }
    ],
    "textures" : [
        {
            "source" : 0
        }
    ],
    "images" : [
        {
            "mimeType" : "image/png",
            "name" : "Tile_+006_+013_L19",
            "uri" : "Tile_006_013_L19.png"
        }
    ],
    "accessors" : [
        {
            "bufferView" : 0,
            "componentType" : 5126,
            "count" : 56467,
            "max" : [
                108.32598876953125,
                32.824798583984375,
                108.802978515625
            ],
            "min" : [
                -107.8499755859375,
                0.6482999920845032,
                -106.99798583984375
            ],
            "type" : "VEC3"
        },
        {
            "bufferView" : 1,
            "componentType" : 5126,
            "count" : 56467,
            "type" : "VEC3"
        },
        {
            "bufferView" : 2,
            "componentType" : 5126,
            "count" : 56467,
            "type" : "VEC2"
        },
        {
            "bufferView" : 3,
            "componentType" : 5123,
            "count" : 108363,
            "type" : "SCALAR"
        }
    ],
    "bufferViews" : [
        {
            "buffer" : 0,
            "byteLength" : 677604,
            "byteOffset" : 0
        },
        {
            "buffer" : 0,
            "byteLength" : 677604,
            "byteOffset" : 677604
        },
        {
            "buffer" : 0,
            "byteLength" : 451736,
            "byteOffset" : 1355208
        },
        {
            "buffer" : 0,
            "byteLength" : 216726,
            "byteOffset" : 1806944
        }
    ],
    "buffers" : [
        {
            "byteLength" : 2023672,
            "uri" : "Tile_006_013_L19.bin"
        }
    ]
}
