{
    "asset" : {
        "generator" : "Khronos glTF Blender I/O v1.3.48",
        "version" : "2.0"
    },
    "scene" : 0,
    "scenes" : [
        {
            "name" : "Scene",
            "nodes" : [
                0
            ]
        }
    ],
    "nodes" : [
        {
            "mesh" : 0,
            "name" : "Tile_+008_+008_L20"
        }
    ],
    "materials" : [
        {
            "alphaCutoff" : 0.5,
            "alphaMode" : "MASK",
            "emissiveFactor" : [
                0,
                0,
                0
            ],
            "name" : "Tile_+008_+008_L20",
            "pbrMetallicRoughness" : {
                "baseColorTexture" : {
                    "index" : 0,
                    "texCoord" : 0
                },
                "metallicFactor" : 0,
                "roughnessFactor" : 1
            }
        }
    ],
    "meshes" : [
        {
            "name" : "Tile_+008_+008_L20",
            "primitives" : [
                {
                    "attributes" : {
                        "POSITION" : 0,
                        "NORMAL" : 1,
                        "TEXCOORD_0" : 2
                    },
                    "indices" : 3,
                    "material" : 0
                }
            ]
        }
    ],
    "textures" : [
        {
            "source" : 0
        }
    ],
    "images" : [
        {
            "mimeType" : "image/png",
            "name" : "Tile_+008_+008_L20",
            "uri" : "Tile_008_008_L20.png"
        }
    ],
    "accessors" : [
        {
            "bufferView" : 0,
            "componentType" : 5126,
            "count" : 143720,
            "max" : [
                115.45199584960938,
                28.171100616455078,
                107.64300537109375
            ],
            "min" : [
                -101.62799072265625,
                -5.382239818572998,
                -106.06199645996094
            ],
            "type" : "VEC3"
        },
        {
            "bufferView" : 1,
            "componentType" : 5126,
            "count" : 143720,
            "type" : "VEC3"
        },
        {
            "bufferView" : 2,
            "componentType" : 5126,
            "count" : 143720,
            "type" : "VEC2"
        },
        {
            "bufferView" : 3,
            "componentType" : 5125,
            "count" : 273987,
            "type" : "SCALAR"
        }
    ],
    "bufferViews" : [
        {
            "buffer" : 0,
            "byteLength" : 1724640,
            "byteOffset" : 0
        },
        {
            "buffer" : 0,
            "byteLength" : 1724640,
            "byteOffset" : 1724640
        },
        {
            "buffer" : 0,
            "byteLength" : 1149760,
            "byteOffset" : 3449280
        },
        {
            "buffer" : 0,
            "byteLength" : 1095948,
            "byteOffset" : 4599040
        }
    ],
    "buffers" : [
        {
            "byteLength" : 5694988,
            "uri" : "Tile_008_008_L20.bin"
        }
    ]
}
