{
    "asset" : {
        "generator" : "Khronos glTF Blender I/O v1.3.48",
        "version" : "2.0"
    },
    "scene" : 0,
    "scenes" : [
        {
            "name" : "Scene",
            "nodes" : [
                0
            ]
        }
    ],
    "nodes" : [
        {
            "mesh" : 0,
            "name" : "Tile_+006_+013_L17"
        }
    ],
    "materials" : [
        {
            "doubleSided" : true,
            "emissiveFactor" : [
                0,
                0,
                0
            ],
            "name" : "Tile_+006_+013_L17",
            "pbrMetallicRoughness" : {
                "baseColorTexture" : {
                    "index" : 0,
                    "texCoord" : 0
                },
                "metallicFactor" : 0,
                "roughnessFactor" : 1
            }
        }
    ],
    "meshes" : [
        {
            "name" : "Tile_+006_+013_L17",
            "primitives" : [
                {
                    "attributes" : {
                        "POSITION" : 0,
                        "NORMAL" : 1,
                        "TEXCOORD_0" : 2
                    },
                    "indices" : 3,
                    "material" : 0
                }
            ]
        }
    ],
    "textures" : [
        {
            "source" : 0
        }
    ],
    "images" : [
        {
            "mimeType" : "image/png",
            "name" : "Tile_+006_+013_L17",
            "uri" : "Tile_006_013_L17.png"
        }
    ],
    "accessors" : [
        {
            "bufferView" : 0,
            "componentType" : 5126,
            "count" : 16098,
            "max" : [
                120.7960205078125,
                32.629798889160156,
                112.697021484375
            ],
            "min" : [
                -118.16998291015625,
                0.82989102602005,
                -112.83697509765625
            ],
            "type" : "VEC3"
        },
        {
            "bufferView" : 1,
            "componentType" : 5126,
            "count" : 16098,
            "type" : "VEC3"
        },
        {
            "bufferView" : 2,
            "componentType" : 5126,
            "count" : 16098,
            "type" : "VEC2"
        },
        {
            "bufferView" : 3,
            "componentType" : 5123,
            "count" : 31197,
            "type" : "SCALAR"
        }
    ],
    "bufferViews" : [
        {
            "buffer" : 0,
            "byteLength" : 193176,
            "byteOffset" : 0
        },
        {
            "buffer" : 0,
            "byteLength" : 193176,
            "byteOffset" : 193176
        },
        {
            "buffer" : 0,
            "byteLength" : 128784,
            "byteOffset" : 386352
        },
        {
            "buffer" : 0,
            "byteLength" : 62394,
            "byteOffset" : 515136
        }
    ],
    "buffers" : [
        {
            "byteLength" : 577532,
            "uri" : "Tile_006_013_L17.bin"
        }
    ]
}
