{
    "asset" : {
        "generator" : "Khronos glTF Blender I/O v1.3.48",
        "version" : "2.0"
    },
    "scene" : 0,
    "scenes" : [
        {
            "name" : "Scene",
            "nodes" : [
                0
            ]
        }
    ],
    "nodes" : [
        {
            "mesh" : 0,
            "name" : "Tile_+012_+003_L16"
        }
    ],
    "materials" : [
        {
            "doubleSided" : true,
            "emissiveFactor" : [
                0,
                0,
                0
            ],
            "name" : "Tile_+012_+003_L16",
            "pbrMetallicRoughness" : {
                "baseColorTexture" : {
                    "index" : 0,
                    "texCoord" : 0
                },
                "metallicFactor" : 0,
                "roughnessFactor" : 1
            }
        }
    ],
    "meshes" : [
        {
            "name" : "Tile_+012_+003_L16",
            "primitives" : [
                {
                    "attributes" : {
                        "POSITION" : 0,
                        "NORMAL" : 1,
                        "TEXCOORD_0" : 2
                    },
                    "indices" : 3,
                    "material" : 0
                }
            ]
        }
    ],
    "textures" : [
        {
            "source" : 0
        }
    ],
    "images" : [
        {
            "mimeType" : "image/png",
            "name" : "Tile_+012_+003_L16",
            "uri" : "Tile_012_003_L16.png"
        }
    ],
    "accessors" : [
        {
            "bufferView" : 0,
            "componentType" : 5126,
            "count" : 14049,
            "max" : [
                115.73199462890625,
                55.22779846191406,
                120.0999755859375
            ],
            "min" : [
                -113.52900695800781,
                14.907500267028809,
                -117.260009765625
            ],
            "type" : "VEC3"
        },
        {
            "bufferView" : 1,
            "componentType" : 5126,
            "count" : 14049,
            "type" : "VEC3"
        },
        {
            "bufferView" : 2,
            "componentType" : 5126,
            "count" : 14049,
            "type" : "VEC2"
        },
        {
            "bufferView" : 3,
            "componentType" : 5123,
            "count" : 22932,
            "type" : "SCALAR"
        }
    ],
    "bufferViews" : [
        {
            "buffer" : 0,
            "byteLength" : 168588,
            "byteOffset" : 0
        },
        {
            "buffer" : 0,
            "byteLength" : 168588,
            "byteOffset" : 168588
        },
        {
            "buffer" : 0,
            "byteLength" : 112392,
            "byteOffset" : 337176
        },
        {
            "buffer" : 0,
            "byteLength" : 45864,
            "byteOffset" : 449568
        }
    ],
    "buffers" : [
        {
            "byteLength" : 495432,
            "uri" : "Tile_012_003_L16.bin"
        }
    ]
}
