{
    "asset" : {
        "generator" : "Khronos glTF Blender I/O v1.3.48",
        "version" : "2.0"
    },
    "scene" : 0,
    "scenes" : [
        {
            "name" : "Scene",
            "nodes" : [
                0
            ]
        }
    ],
    "nodes" : [
        {
            "mesh" : 0,
            "name" : "Tile_+011_+017_L20"
        }
    ],
    "materials" : [
        {
            "alphaCutoff" : 0.5,
            "alphaMode" : "MASK",
            "emissiveFactor" : [
                0,
                0,
                0
            ],
            "name" : "Tile_+011_+017_L20",
            "pbrMetallicRoughness" : {
                "baseColorTexture" : {
                    "index" : 0,
                    "texCoord" : 0
                },
                "metallicFactor" : 0,
                "roughnessFactor" : 1
            }
        }
    ],
    "meshes" : [
        {
            "name" : "Tile_+011_+017_L20",
            "primitives" : [
                {
                    "attributes" : {
                        "POSITION" : 0,
                        "NORMAL" : 1,
                        "TEXCOORD_0" : 2
                    },
                    "indices" : 3,
                    "material" : 0
                }
            ]
        }
    ],
    "textures" : [
        {
            "source" : 0
        }
    ],
    "images" : [
        {
            "mimeType" : "image/png",
            "name" : "Tile_+011_+017_L20",
            "uri" : "Tile_011_017_L20.png"
        }
    ],
    "accessors" : [
        {
            "bufferView" : 0,
            "componentType" : 5126,
            "count" : 82927,
            "max" : [
                105.23899841308594,
                18.044200897216797,
                107.030029296875
            ],
            "min" : [
                -67.45860290527344,
                1.2992700338363647,
                -14.5400390625
            ],
            "type" : "VEC3"
        },
        {
            "bufferView" : 1,
            "componentType" : 5126,
            "count" : 82927,
            "type" : "VEC3"
        },
        {
            "bufferView" : 2,
            "componentType" : 5126,
            "count" : 82927,
            "type" : "VEC2"
        },
        {
            "bufferView" : 3,
            "componentType" : 5125,
            "count" : 152946,
            "type" : "SCALAR"
        }
    ],
    "bufferViews" : [
        {
            "buffer" : 0,
            "byteLength" : 995124,
            "byteOffset" : 0
        },
        {
            "buffer" : 0,
            "byteLength" : 995124,
            "byteOffset" : 995124
        },
        {
            "buffer" : 0,
            "byteLength" : 663416,
            "byteOffset" : 1990248
        },
        {
            "buffer" : 0,
            "byteLength" : 611784,
            "byteOffset" : 2653664
        }
    ],
    "buffers" : [
        {
            "byteLength" : 3265448,
            "uri" : "Tile_011_017_L20.bin"
        }
    ]
}
