{
    "asset" : {
        "generator" : "Khronos glTF Blender I/O v1.3.48",
        "version" : "2.0"
    },
    "scene" : 0,
    "scenes" : [
        {
            "name" : "Scene",
            "nodes" : [
                0
            ]
        }
    ],
    "nodes" : [
        {
            "mesh" : 0,
            "name" : "Tile_+010_+007_L18"
        }
    ],
    "materials" : [
        {
            "alphaCutoff" : 0.5,
            "alphaMode" : "MASK",
            "emissiveFactor" : [
                0,
                0,
                0
            ],
            "name" : "Tile_+010_+007_L18",
            "pbrMetallicRoughness" : {
                "baseColorTexture" : {
                    "index" : 0,
                    "texCoord" : 0
                },
                "metallicFactor" : 0,
                "roughnessFactor" : 1
            }
        }
    ],
    "meshes" : [
        {
            "name" : "Tile_+010_+007_L18",
            "primitives" : [
                {
                    "attributes" : {
                        "POSITION" : 0,
                        "NORMAL" : 1,
                        "TEXCOORD_0" : 2
                    },
                    "indices" : 3,
                    "material" : 0
                }
            ]
        }
    ],
    "textures" : [
        {
            "source" : 0
        }
    ],
    "images" : [
        {
            "mimeType" : "image/png",
            "name" : "Tile_+010_+007_L18",
            "uri" : "Tile_010_007_L18.png"
        }
    ],
    "accessors" : [
        {
            "bufferView" : 0,
            "componentType" : 5126,
            "count" : 33552,
            "max" : [
                113.13410186767578,
                27.744699478149414,
                111.2030029296875
            ],
            "min" : [
                -111.75300598144531,
                3.376650094985962,
                -114.21600341796875
            ],
            "type" : "VEC3"
        },
        {
            "bufferView" : 1,
            "componentType" : 5126,
            "count" : 33552,
            "type" : "VEC3"
        },
        {
            "bufferView" : 2,
            "componentType" : 5126,
            "count" : 33552,
            "type" : "VEC2"
        },
        {
            "bufferView" : 3,
            "componentType" : 5123,
            "count" : 58320,
            "type" : "SCALAR"
        }
    ],
    "bufferViews" : [
        {
            "buffer" : 0,
            "byteLength" : 402624,
            "byteOffset" : 0
        },
        {
            "buffer" : 0,
            "byteLength" : 402624,
            "byteOffset" : 402624
        },
        {
            "buffer" : 0,
            "byteLength" : 268416,
            "byteOffset" : 805248
        },
        {
            "buffer" : 0,
            "byteLength" : 116640,
            "byteOffset" : 1073664
        }
    ],
    "buffers" : [
        {
            "byteLength" : 1190304,
            "uri" : "Tile_010_007_L18.bin"
        }
    ]
}
