{
    "asset" : {
        "generator" : "Khronos glTF Blender I/O v1.3.48",
        "version" : "2.0"
    },
    "scene" : 0,
    "scenes" : [
        {
            "name" : "Scene",
            "nodes" : [
                0
            ]
        }
    ],
    "nodes" : [
        {
            "mesh" : 0,
            "name" : "Tile_+007_+009_L19"
        }
    ],
    "materials" : [
        {
            "alphaCutoff" : 0.5,
            "alphaMode" : "MASK",
            "emissiveFactor" : [
                0,
                0,
                0
            ],
            "name" : "Tile_+007_+009_L19",
            "pbrMetallicRoughness" : {
                "baseColorTexture" : {
                    "index" : 0,
                    "texCoord" : 0
                },
                "metallicFactor" : 0,
                "roughnessFactor" : 1
            }
        }
    ],
    "meshes" : [
        {
            "name" : "Tile_+007_+009_L19",
            "primitives" : [
                {
                    "attributes" : {
                        "POSITION" : 0,
                        "NORMAL" : 1,
                        "TEXCOORD_0" : 2
                    },
                    "indices" : 3,
                    "material" : 0
                }
            ]
        }
    ],
    "textures" : [
        {
            "source" : 0
        }
    ],
    "images" : [
        {
            "mimeType" : "image/png",
            "name" : "Tile_+007_+009_L19",
            "uri" : "Tile_007_009_L19.png"
        }
    ],
    "accessors" : [
        {
            "bufferView" : 0,
            "componentType" : 5126,
            "count" : 17495,
            "max" : [
                107.84100341796875,
                19.36750030517578,
                60.529998779296875
            ],
            "min" : [
                -7.1920166015625,
                -2.3994600772857666,
                -105.83360290527344
            ],
            "type" : "VEC3"
        },
        {
            "bufferView" : 1,
            "componentType" : 5126,
            "count" : 17495,
            "type" : "VEC3"
        },
        {
            "bufferView" : 2,
            "componentType" : 5126,
            "count" : 17495,
            "type" : "VEC2"
        },
        {
            "bufferView" : 3,
            "componentType" : 5123,
            "count" : 31419,
            "type" : "SCALAR"
        }
    ],
    "bufferViews" : [
        {
            "buffer" : 0,
            "byteLength" : 209940,
            "byteOffset" : 0
        },
        {
            "buffer" : 0,
            "byteLength" : 209940,
            "byteOffset" : 209940
        },
        {
            "buffer" : 0,
            "byteLength" : 139960,
            "byteOffset" : 419880
        },
        {
            "buffer" : 0,
            "byteLength" : 62838,
            "byteOffset" : 559840
        }
    ],
    "buffers" : [
        {
            "byteLength" : 622680,
            "uri" : "Tile_007_009_L19.bin"
        }
    ]
}
