{
    "asset" : {
        "generator" : "Khronos glTF Blender I/O v1.3.48",
        "version" : "2.0"
    },
    "scene" : 0,
    "scenes" : [
        {
            "name" : "Scene",
            "nodes" : [
                0
            ]
        }
    ],
    "nodes" : [
        {
            "mesh" : 0,
            "name" : "Tile_+006_+011_L20"
        }
    ],
    "materials" : [
        {
            "alphaCutoff" : 0.5,
            "alphaMode" : "MASK",
            "emissiveFactor" : [
                0,
                0,
                0
            ],
            "name" : "Tile_+006_+011_L20",
            "pbrMetallicRoughness" : {
                "baseColorTexture" : {
                    "index" : 0,
                    "texCoord" : 0
                },
                "metallicFactor" : 0,
                "roughnessFactor" : 1
            }
        }
    ],
    "meshes" : [
        {
            "name" : "Tile_+006_+011_L20",
            "primitives" : [
                {
                    "attributes" : {
                        "POSITION" : 0,
                        "NORMAL" : 1,
                        "TEXCOORD_0" : 2
                    },
                    "indices" : 3,
                    "material" : 0
                }
            ]
        }
    ],
    "textures" : [
        {
            "source" : 0
        }
    ],
    "images" : [
        {
            "mimeType" : "image/png",
            "name" : "Tile_+006_+011_L20",
            "uri" : "Tile_006_011_L20.png"
        }
    ],
    "accessors" : [
        {
            "bufferView" : 0,
            "componentType" : 5126,
            "count" : 54929,
            "max" : [
                111.4439697265625,
                41.12820053100586,
                65.07699584960938
            ],
            "min" : [
                -56.46197509765625,
                -3.7018699645996094,
                -106.06201171875
            ],
            "type" : "VEC3"
        },
        {
            "bufferView" : 1,
            "componentType" : 5126,
            "count" : 54929,
            "type" : "VEC3"
        },
        {
            "bufferView" : 2,
            "componentType" : 5126,
            "count" : 54929,
            "type" : "VEC2"
        },
        {
            "bufferView" : 3,
            "componentType" : 5123,
            "count" : 115554,
            "type" : "SCALAR"
        }
    ],
    "bufferViews" : [
        {
            "buffer" : 0,
            "byteLength" : 659148,
            "byteOffset" : 0
        },
        {
            "buffer" : 0,
            "byteLength" : 659148,
            "byteOffset" : 659148
        },
        {
            "buffer" : 0,
            "byteLength" : 439432,
            "byteOffset" : 1318296
        },
        {
            "buffer" : 0,
            "byteLength" : 231108,
            "byteOffset" : 1757728
        }
    ],
    "buffers" : [
        {
            "byteLength" : 1988836,
            "uri" : "Tile_006_011_L20.bin"
        }
    ]
}
