{
    "asset" : {
        "generator" : "Khronos glTF Blender I/O v1.3.48",
        "version" : "2.0"
    },
    "scene" : 0,
    "scenes" : [
        {
            "name" : "Scene",
            "nodes" : [
                0
            ]
        }
    ],
    "nodes" : [
        {
            "mesh" : 0,
            "name" : "Tile_+013_+009_L17"
        }
    ],
    "materials" : [
        {
            "doubleSided" : true,
            "emissiveFactor" : [
                0,
                0,
                0
            ],
            "name" : "Tile_+013_+009_L17",
            "pbrMetallicRoughness" : {
                "baseColorTexture" : {
                    "index" : 0,
                    "texCoord" : 0
                },
                "metallicFactor" : 0,
                "roughnessFactor" : 1
            }
        }
    ],
    "meshes" : [
        {
            "name" : "Tile_+013_+009_L17",
            "primitives" : [
                {
                    "attributes" : {
                        "POSITION" : 0,
                        "NORMAL" : 1,
                        "TEXCOORD_0" : 2
                    },
                    "indices" : 3,
                    "material" : 0
                }
            ]
        }
    ],
    "textures" : [
        {
            "source" : 0
        }
    ],
    "images" : [
        {
            "mimeType" : "image/png",
            "name" : "Tile_+013_+009_L17",
            "uri" : "Tile_013_009_L17.png"
        }
    ],
    "accessors" : [
        {
            "bufferView" : 0,
            "componentType" : 5126,
            "count" : 47482,
            "max" : [
                111.86102294921875,
                76.21410369873047,
                110.76499938964844
            ],
            "min" : [
                -109.86199951171875,
                13.749699592590332,
                -112.56169891357422
            ],
            "type" : "VEC3"
        },
        {
            "bufferView" : 1,
            "componentType" : 5126,
            "count" : 47482,
            "type" : "VEC3"
        },
        {
            "bufferView" : 2,
            "componentType" : 5126,
            "count" : 47482,
            "type" : "VEC2"
        },
        {
            "bufferView" : 3,
            "componentType" : 5123,
            "count" : 71796,
            "type" : "SCALAR"
        }
    ],
    "bufferViews" : [
        {
            "buffer" : 0,
            "byteLength" : 569784,
            "byteOffset" : 0
        },
        {
            "buffer" : 0,
            "byteLength" : 569784,
            "byteOffset" : 569784
        },
        {
            "buffer" : 0,
            "byteLength" : 379856,
            "byteOffset" : 1139568
        },
        {
            "buffer" : 0,
            "byteLength" : 143592,
            "byteOffset" : 1519424
        }
    ],
    "buffers" : [
        {
            "byteLength" : 1663016,
            "uri" : "Tile_013_009_L17.bin"
        }
    ]
}
