{
    "asset" : {
        "generator" : "Khronos glTF Blender I/O v1.3.48",
        "version" : "2.0"
    },
    "scene" : 0,
    "scenes" : [
        {
            "name" : "Scene",
            "nodes" : [
                0
            ]
        }
    ],
    "nodes" : [
        {
            "mesh" : 0,
            "name" : "Tile_+009_+015_L15"
        }
    ],
    "materials" : [
        {
            "doubleSided" : true,
            "emissiveFactor" : [
                0,
                0,
                0
            ],
            "name" : "Tile_+009_+015_L15",
            "pbrMetallicRoughness" : {
                "baseColorTexture" : {
                    "index" : 0,
                    "texCoord" : 0
                },
                "metallicFactor" : 0,
                "roughnessFactor" : 1
            }
        }
    ],
    "meshes" : [
        {
            "name" : "Tile_+009_+015_L15",
            "primitives" : [
                {
                    "attributes" : {
                        "POSITION" : 0,
                        "NORMAL" : 1,
                        "TEXCOORD_0" : 2
                    },
                    "indices" : 3,
                    "material" : 0
                }
            ]
        }
    ],
    "textures" : [
        {
            "source" : 0
        }
    ],
    "images" : [
        {
            "mimeType" : "image/png",
            "name" : "Tile_+009_+015_L15",
            "uri" : "Tile_009_015_L15.png"
        }
    ],
    "accessors" : [
        {
            "bufferView" : 0,
            "componentType" : 5126,
            "count" : 41,
            "max" : [
                108.26600646972656,
                6.190400123596191,
                -78.1199951171875
            ],
            "min" : [
                96.29100036621094,
                1.296589970588684,
                -113.1700439453125
            ],
            "type" : "VEC3"
        },
        {
            "bufferView" : 1,
            "componentType" : 5126,
            "count" : 41,
            "type" : "VEC3"
        },
        {
            "bufferView" : 2,
            "componentType" : 5126,
            "count" : 41,
            "type" : "VEC2"
        },
        {
            "bufferView" : 3,
            "componentType" : 5123,
            "count" : 51,
            "type" : "SCALAR"
        }
    ],
    "bufferViews" : [
        {
            "buffer" : 0,
            "byteLength" : 492,
            "byteOffset" : 0
        },
        {
            "buffer" : 0,
            "byteLength" : 492,
            "byteOffset" : 492
        },
        {
            "buffer" : 0,
            "byteLength" : 328,
            "byteOffset" : 984
        },
        {
            "buffer" : 0,
            "byteLength" : 102,
            "byteOffset" : 1312
        }
    ],
    "buffers" : [
        {
            "byteLength" : 1416,
            "uri" : "Tile_009_015_L15.bin"
        }
    ]
}
