{
    "asset" : {
        "generator" : "Khronos glTF Blender I/O v1.3.48",
        "version" : "2.0"
    },
    "scene" : 0,
    "scenes" : [
        {
            "name" : "Scene",
            "nodes" : [
                0
            ]
        }
    ],
    "nodes" : [
        {
            "mesh" : 0,
            "name" : "Tile_+006_+005_L16"
        }
    ],
    "materials" : [
        {
            "doubleSided" : true,
            "emissiveFactor" : [
                0,
                0,
                0
            ],
            "name" : "Tile_+006_+005_L16",
            "pbrMetallicRoughness" : {
                "baseColorTexture" : {
                    "index" : 0,
                    "texCoord" : 0
                },
                "metallicFactor" : 0,
                "roughnessFactor" : 1
            }
        }
    ],
    "meshes" : [
        {
            "name" : "Tile_+006_+005_L16",
            "primitives" : [
                {
                    "attributes" : {
                        "POSITION" : 0,
                        "NORMAL" : 1,
                        "TEXCOORD_0" : 2
                    },
                    "indices" : 3,
                    "material" : 0
                }
            ]
        }
    ],
    "textures" : [
        {
            "source" : 0
        }
    ],
    "images" : [
        {
            "mimeType" : "image/png",
            "name" : "Tile_+006_+005_L16",
            "uri" : "Tile_006_005_L16.png"
        }
    ],
    "accessors" : [
        {
            "bufferView" : 0,
            "componentType" : 5126,
            "count" : 1015,
            "max" : [
                112.2039794921875,
                97.41919708251953,
                -71.656005859375
            ],
            "min" : [
                2.93402099609375,
                65.59559631347656,
                -106.74102783203125
            ],
            "type" : "VEC3"
        },
        {
            "bufferView" : 1,
            "componentType" : 5126,
            "count" : 1015,
            "type" : "VEC3"
        },
        {
            "bufferView" : 2,
            "componentType" : 5126,
            "count" : 1015,
            "type" : "VEC2"
        },
        {
            "bufferView" : 3,
            "componentType" : 5123,
            "count" : 1398,
            "type" : "SCALAR"
        }
    ],
    "bufferViews" : [
        {
            "buffer" : 0,
            "byteLength" : 12180,
            "byteOffset" : 0
        },
        {
            "buffer" : 0,
            "byteLength" : 12180,
            "byteOffset" : 12180
        },
        {
            "buffer" : 0,
            "byteLength" : 8120,
            "byteOffset" : 24360
        },
        {
            "buffer" : 0,
            "byteLength" : 2796,
            "byteOffset" : 32480
        }
    ],
    "buffers" : [
        {
            "byteLength" : 35276,
            "uri" : "Tile_006_005_L16.bin"
        }
    ]
}
