{
    "asset" : {
        "generator" : "Khronos glTF Blender I/O v1.3.48",
        "version" : "2.0"
    },
    "scene" : 0,
    "scenes" : [
        {
            "name" : "Scene",
            "nodes" : [
                0
            ]
        }
    ],
    "nodes" : [
        {
            "mesh" : 0,
            "name" : "Tile_+011_+007_L17"
        }
    ],
    "materials" : [
        {
            "doubleSided" : true,
            "emissiveFactor" : [
                0,
                0,
                0
            ],
            "name" : "Tile_+011_+007_L17",
            "pbrMetallicRoughness" : {
                "baseColorTexture" : {
                    "index" : 0,
                    "texCoord" : 0
                },
                "metallicFactor" : 0,
                "roughnessFactor" : 1
            }
        }
    ],
    "meshes" : [
        {
            "name" : "Tile_+011_+007_L17",
            "primitives" : [
                {
                    "attributes" : {
                        "POSITION" : 0,
                        "NORMAL" : 1,
                        "TEXCOORD_0" : 2
                    },
                    "indices" : 3,
                    "material" : 0
                }
            ]
        }
    ],
    "textures" : [
        {
            "source" : 0
        }
    ],
    "images" : [
        {
            "mimeType" : "image/png",
            "name" : "Tile_+011_+007_L17",
            "uri" : "Tile_011_007_L17.png"
        }
    ],
    "accessors" : [
        {
            "bufferView" : 0,
            "componentType" : 5126,
            "count" : 22964,
            "max" : [
                111.05299377441406,
                29.907100677490234,
                119.97900390625
            ],
            "min" : [
                -119.16799926757812,
                4.375450134277344,
                -112.57400512695312
            ],
            "type" : "VEC3"
        },
        {
            "bufferView" : 1,
            "componentType" : 5126,
            "count" : 22964,
            "type" : "VEC3"
        },
        {
            "bufferView" : 2,
            "componentType" : 5126,
            "count" : 22964,
            "type" : "VEC2"
        },
        {
            "bufferView" : 3,
            "componentType" : 5123,
            "count" : 38895,
            "type" : "SCALAR"
        }
    ],
    "bufferViews" : [
        {
            "buffer" : 0,
            "byteLength" : 275568,
            "byteOffset" : 0
        },
        {
            "buffer" : 0,
            "byteLength" : 275568,
            "byteOffset" : 275568
        },
        {
            "buffer" : 0,
            "byteLength" : 183712,
            "byteOffset" : 551136
        },
        {
            "buffer" : 0,
            "byteLength" : 77790,
            "byteOffset" : 734848
        }
    ],
    "buffers" : [
        {
            "byteLength" : 812640,
            "uri" : "Tile_011_007_L17.bin"
        }
    ]
}
