{
    "asset" : {
        "generator" : "Khronos glTF Blender I/O v1.3.48",
        "version" : "2.0"
    },
    "scene" : 0,
    "scenes" : [
        {
            "name" : "Scene",
            "nodes" : [
                0
            ]
        }
    ],
    "nodes" : [
        {
            "mesh" : 0,
            "name" : "Tile_+014_+009_L18"
        }
    ],
    "materials" : [
        {
            "alphaCutoff" : 0.5,
            "alphaMode" : "MASK",
            "emissiveFactor" : [
                0,
                0,
                0
            ],
            "name" : "Tile_+014_+009_L18",
            "pbrMetallicRoughness" : {
                "baseColorTexture" : {
                    "index" : 0,
                    "texCoord" : 0
                },
                "metallicFactor" : 0,
                "roughnessFactor" : 1
            }
        }
    ],
    "meshes" : [
        {
            "name" : "Tile_+014_+009_L18",
            "primitives" : [
                {
                    "attributes" : {
                        "POSITION" : 0,
                        "NORMAL" : 1,
                        "TEXCOORD_0" : 2
                    },
                    "indices" : 3,
                    "material" : 0
                }
            ]
        }
    ],
    "textures" : [
        {
            "source" : 0
        }
    ],
    "images" : [
        {
            "mimeType" : "image/png",
            "name" : "Tile_+014_+009_L18",
            "uri" : "Tile_014_009_L18.png"
        }
    ],
    "accessors" : [
        {
            "bufferView" : 0,
            "componentType" : 5126,
            "count" : 75543,
            "max" : [
                116.0999755859375,
                91.64399719238281,
                108.61700439453125
            ],
            "min" : [
                -106.60302734375,
                40.525699615478516,
                -108.12560272216797
            ],
            "type" : "VEC3"
        },
        {
            "bufferView" : 1,
            "componentType" : 5126,
            "count" : 75543,
            "type" : "VEC3"
        },
        {
            "bufferView" : 2,
            "componentType" : 5126,
            "count" : 75543,
            "type" : "VEC2"
        },
        {
            "bufferView" : 3,
            "componentType" : 5125,
            "count" : 120576,
            "type" : "SCALAR"
        }
    ],
    "bufferViews" : [
        {
            "buffer" : 0,
            "byteLength" : 906516,
            "byteOffset" : 0
        },
        {
            "buffer" : 0,
            "byteLength" : 906516,
            "byteOffset" : 906516
        },
        {
            "buffer" : 0,
            "byteLength" : 604344,
            "byteOffset" : 1813032
        },
        {
            "buffer" : 0,
            "byteLength" : 482304,
            "byteOffset" : 2417376
        }
    ],
    "buffers" : [
        {
            "byteLength" : 2899680,
            "uri" : "Tile_014_009_L18.bin"
        }
    ]
}
