{
    "asset" : {
        "generator" : "Khronos glTF Blender I/O v1.3.48",
        "version" : "2.0"
    },
    "scene" : 0,
    "scenes" : [
        {
            "name" : "Scene",
            "nodes" : [
                0
            ]
        }
    ],
    "nodes" : [
        {
            "mesh" : 0,
            "name" : "Tile_+008_+004_L19"
        }
    ],
    "materials" : [
        {
            "doubleSided" : true,
            "emissiveFactor" : [
                0,
                0,
                0
            ],
            "name" : "Tile_+008_+004_L19",
            "pbrMetallicRoughness" : {
                "baseColorTexture" : {
                    "index" : 0,
                    "texCoord" : 0
                },
                "metallicFactor" : 0,
                "roughnessFactor" : 1
            }
        }
    ],
    "meshes" : [
        {
            "name" : "Tile_+008_+004_L19",
            "primitives" : [
                {
                    "attributes" : {
                        "POSITION" : 0,
                        "NORMAL" : 1,
                        "TEXCOORD_0" : 2
                    },
                    "indices" : 3,
                    "material" : 0
                }
            ]
        }
    ],
    "textures" : [
        {
            "source" : 0
        }
    ],
    "images" : [
        {
            "mimeType" : "image/png",
            "name" : "Tile_+008_+004_L19",
            "uri" : "Tile_008_004_L19.png"
        }
    ],
    "accessors" : [
        {
            "bufferView" : 0,
            "componentType" : 5126,
            "count" : 17124,
            "max" : [
                107.39498901367188,
                51.168800354003906,
                -17.1700439453125
            ],
            "min" : [
                28.31201171875,
                22.418899536132812,
                -104.41400146484375
            ],
            "type" : "VEC3"
        },
        {
            "bufferView" : 1,
            "componentType" : 5126,
            "count" : 17124,
            "type" : "VEC3"
        },
        {
            "bufferView" : 2,
            "componentType" : 5126,
            "count" : 17124,
            "type" : "VEC2"
        },
        {
            "bufferView" : 3,
            "componentType" : 5123,
            "count" : 29547,
            "type" : "SCALAR"
        }
    ],
    "bufferViews" : [
        {
            "buffer" : 0,
            "byteLength" : 205488,
            "byteOffset" : 0
        },
        {
            "buffer" : 0,
            "byteLength" : 205488,
            "byteOffset" : 205488
        },
        {
            "buffer" : 0,
            "byteLength" : 136992,
            "byteOffset" : 410976
        },
        {
            "buffer" : 0,
            "byteLength" : 59094,
            "byteOffset" : 547968
        }
    ],
    "buffers" : [
        {
            "byteLength" : 607064,
            "uri" : "Tile_008_004_L19.bin"
        }
    ]
}
