{
    "asset" : {
        "generator" : "Khronos glTF Blender I/O v1.3.48",
        "version" : "2.0"
    },
    "scene" : 0,
    "scenes" : [
        {
            "name" : "Scene",
            "nodes" : [
                0
            ]
        }
    ],
    "nodes" : [
        {
            "mesh" : 0,
            "name" : "Tile_+013_+007_L19"
        }
    ],
    "materials" : [
        {
            "alphaCutoff" : 0.5,
            "alphaMode" : "MASK",
            "emissiveFactor" : [
                0,
                0,
                0
            ],
            "name" : "Tile_+013_+007_L19",
            "pbrMetallicRoughness" : {
                "baseColorTexture" : {
                    "index" : 0,
                    "texCoord" : 0
                },
                "metallicFactor" : 0,
                "roughnessFactor" : 1
            }
        }
    ],
    "meshes" : [
        {
            "name" : "Tile_+013_+007_L19",
            "primitives" : [
                {
                    "attributes" : {
                        "POSITION" : 0,
                        "NORMAL" : 1,
                        "TEXCOORD_0" : 2
                    },
                    "indices" : 3,
                    "material" : 0
                }
            ]
        }
    ],
    "textures" : [
        {
            "source" : 0
        }
    ],
    "images" : [
        {
            "mimeType" : "image/png",
            "name" : "Tile_+013_+007_L19",
            "uri" : "Tile_013_007_L19.png"
        }
    ],
    "accessors" : [
        {
            "bufferView" : 0,
            "componentType" : 5126,
            "count" : 106141,
            "max" : [
                92.926025390625,
                60.77750015258789,
                106.4849853515625
            ],
            "min" : [
                -106.89599609375,
                21.601499557495117,
                -104.96600341796875
            ],
            "type" : "VEC3"
        },
        {
            "bufferView" : 1,
            "componentType" : 5126,
            "count" : 106141,
            "type" : "VEC3"
        },
        {
            "bufferView" : 2,
            "componentType" : 5126,
            "count" : 106141,
            "type" : "VEC2"
        },
        {
            "bufferView" : 3,
            "componentType" : 5125,
            "count" : 180864,
            "type" : "SCALAR"
        }
    ],
    "bufferViews" : [
        {
            "buffer" : 0,
            "byteLength" : 1273692,
            "byteOffset" : 0
        },
        {
            "buffer" : 0,
            "byteLength" : 1273692,
            "byteOffset" : 1273692
        },
        {
            "buffer" : 0,
            "byteLength" : 849128,
            "byteOffset" : 2547384
        },
        {
            "buffer" : 0,
            "byteLength" : 723456,
            "byteOffset" : 3396512
        }
    ],
    "buffers" : [
        {
            "byteLength" : 4119968,
            "uri" : "Tile_013_007_L19.bin"
        }
    ]
}
