{
    "asset" : {
        "generator" : "Khronos glTF Blender I/O v1.3.48",
        "version" : "2.0"
    },
    "scene" : 0,
    "scenes" : [
        {
            "name" : "Scene",
            "nodes" : [
                0
            ]
        }
    ],
    "nodes" : [
        {
            "mesh" : 0,
            "name" : "Tile_+010_+014_L16"
        }
    ],
    "materials" : [
        {
            "doubleSided" : true,
            "emissiveFactor" : [
                0,
                0,
                0
            ],
            "name" : "Tile_+010_+014_L16",
            "pbrMetallicRoughness" : {
                "baseColorTexture" : {
                    "index" : 0,
                    "texCoord" : 0
                },
                "metallicFactor" : 0,
                "roughnessFactor" : 1
            }
        }
    ],
    "meshes" : [
        {
            "name" : "Tile_+010_+014_L16",
            "primitives" : [
                {
                    "attributes" : {
                        "POSITION" : 0,
                        "NORMAL" : 1,
                        "TEXCOORD_0" : 2
                    },
                    "indices" : 3,
                    "material" : 0
                }
            ]
        }
    ],
    "textures" : [
        {
            "source" : 0
        }
    ],
    "images" : [
        {
            "mimeType" : "image/png",
            "name" : "Tile_+010_+014_L16",
            "uri" : "Tile_010_014_L16.png"
        }
    ],
    "accessors" : [
        {
            "bufferView" : 0,
            "componentType" : 5126,
            "count" : 21115,
            "max" : [
                112.1969985961914,
                24.966899871826172,
                118.0040283203125
            ],
            "min" : [
                -117.47200012207031,
                0.710860013961792,
                -113.6500244140625
            ],
            "type" : "VEC3"
        },
        {
            "bufferView" : 1,
            "componentType" : 5126,
            "count" : 21115,
            "type" : "VEC3"
        },
        {
            "bufferView" : 2,
            "componentType" : 5126,
            "count" : 21115,
            "type" : "VEC2"
        },
        {
            "bufferView" : 3,
            "componentType" : 5123,
            "count" : 34692,
            "type" : "SCALAR"
        }
    ],
    "bufferViews" : [
        {
            "buffer" : 0,
            "byteLength" : 253380,
            "byteOffset" : 0
        },
        {
            "buffer" : 0,
            "byteLength" : 253380,
            "byteOffset" : 253380
        },
        {
            "buffer" : 0,
            "byteLength" : 168920,
            "byteOffset" : 506760
        },
        {
            "buffer" : 0,
            "byteLength" : 69384,
            "byteOffset" : 675680
        }
    ],
    "buffers" : [
        {
            "byteLength" : 745064,
            "uri" : "Tile_010_014_L16.bin"
        }
    ]
}
