{
    "asset" : {
        "generator" : "Khronos glTF Blender I/O v1.3.48",
        "version" : "2.0"
    },
    "scene" : 0,
    "scenes" : [
        {
            "name" : "Scene",
            "nodes" : [
                0
            ]
        }
    ],
    "nodes" : [
        {
            "mesh" : 0,
            "name" : "Tile_+007_+008_L15"
        }
    ],
    "materials" : [
        {
            "doubleSided" : true,
            "emissiveFactor" : [
                0,
                0,
                0
            ],
            "name" : "Tile_+007_+008_L15",
            "pbrMetallicRoughness" : {
                "baseColorTexture" : {
                    "index" : 0,
                    "texCoord" : 0
                },
                "metallicFactor" : 0,
                "roughnessFactor" : 1
            }
        }
    ],
    "meshes" : [
        {
            "name" : "Tile_+007_+008_L15",
            "primitives" : [
                {
                    "attributes" : {
                        "POSITION" : 0,
                        "NORMAL" : 1,
                        "TEXCOORD_0" : 2
                    },
                    "indices" : 3,
                    "material" : 0
                }
            ]
        }
    ],
    "textures" : [
        {
            "source" : 0
        }
    ],
    "images" : [
        {
            "mimeType" : "image/png",
            "name" : "Tile_+007_+008_L15",
            "uri" : "Tile_007_008_L15.png"
        }
    ],
    "accessors" : [
        {
            "bufferView" : 0,
            "componentType" : 5126,
            "count" : 39,
            "max" : [
                118.6829833984375,
                2.293109893798828,
                83.57998657226562
            ],
            "min" : [
                -111.4990234375,
                -5.8665900230407715,
                -1.1540069580078125
            ],
            "type" : "VEC3"
        },
        {
            "bufferView" : 1,
            "componentType" : 5126,
            "count" : 39,
            "type" : "VEC3"
        },
        {
            "bufferView" : 2,
            "componentType" : 5126,
            "count" : 39,
            "type" : "VEC2"
        },
        {
            "bufferView" : 3,
            "componentType" : 5123,
            "count" : 63,
            "type" : "SCALAR"
        }
    ],
    "bufferViews" : [
        {
            "buffer" : 0,
            "byteLength" : 468,
            "byteOffset" : 0
        },
        {
            "buffer" : 0,
            "byteLength" : 468,
            "byteOffset" : 468
        },
        {
            "buffer" : 0,
            "byteLength" : 312,
            "byteOffset" : 936
        },
        {
            "buffer" : 0,
            "byteLength" : 126,
            "byteOffset" : 1248
        }
    ],
    "buffers" : [
        {
            "byteLength" : 1376,
            "uri" : "Tile_007_008_L15.bin"
        }
    ]
}
