{
    "asset" : {
        "generator" : "Khronos glTF Blender I/O v1.3.48",
        "version" : "2.0"
    },
    "scene" : 0,
    "scenes" : [
        {
            "name" : "Scene",
            "nodes" : [
                0
            ]
        }
    ],
    "nodes" : [
        {
            "mesh" : 0,
            "name" : "Tile_+009_+016_L15"
        }
    ],
    "materials" : [
        {
            "doubleSided" : true,
            "emissiveFactor" : [
                0,
                0,
                0
            ],
            "name" : "Tile_+009_+016_L15",
            "pbrMetallicRoughness" : {
                "baseColorTexture" : {
                    "index" : 0,
                    "texCoord" : 0
                },
                "metallicFactor" : 0,
                "roughnessFactor" : 1
            }
        }
    ],
    "meshes" : [
        {
            "name" : "Tile_+009_+016_L15",
            "primitives" : [
                {
                    "attributes" : {
                        "POSITION" : 0,
                        "NORMAL" : 1,
                        "TEXCOORD_0" : 2
                    },
                    "indices" : 3,
                    "material" : 0
                }
            ]
        }
    ],
    "textures" : [
        {
            "source" : 0
        }
    ],
    "images" : [
        {
            "mimeType" : "image/png",
            "name" : "Tile_+009_+016_L15",
            "uri" : "Tile_009_016_L15.png"
        }
    ],
    "accessors" : [
        {
            "bufferView" : 0,
            "componentType" : 5126,
            "count" : 37,
            "max" : [
                121.08599853515625,
                9.456040382385254,
                102.1700439453125
            ],
            "min" : [
                93.08500671386719,
                0.7796229720115662,
                53.1500244140625
            ],
            "type" : "VEC3"
        },
        {
            "bufferView" : 1,
            "componentType" : 5126,
            "count" : 37,
            "type" : "VEC3"
        },
        {
            "bufferView" : 2,
            "componentType" : 5126,
            "count" : 37,
            "type" : "VEC2"
        },
        {
            "bufferView" : 3,
            "componentType" : 5123,
            "count" : 57,
            "type" : "SCALAR"
        }
    ],
    "bufferViews" : [
        {
            "buffer" : 0,
            "byteLength" : 444,
            "byteOffset" : 0
        },
        {
            "buffer" : 0,
            "byteLength" : 444,
            "byteOffset" : 444
        },
        {
            "buffer" : 0,
            "byteLength" : 296,
            "byteOffset" : 888
        },
        {
            "buffer" : 0,
            "byteLength" : 114,
            "byteOffset" : 1184
        }
    ],
    "buffers" : [
        {
            "byteLength" : 1300,
            "uri" : "Tile_009_016_L15.bin"
        }
    ]
}
