{
    "asset" : {
        "generator" : "Khronos glTF Blender I/O v1.3.48",
        "version" : "2.0"
    },
    "scene" : 0,
    "scenes" : [
        {
            "name" : "Scene",
            "nodes" : [
                0
            ]
        }
    ],
    "nodes" : [
        {
            "mesh" : 0,
            "name" : "Tile_+008_+012_L16"
        }
    ],
    "materials" : [
        {
            "doubleSided" : true,
            "emissiveFactor" : [
                0,
                0,
                0
            ],
            "name" : "Tile_+008_+012_L16",
            "pbrMetallicRoughness" : {
                "baseColorTexture" : {
                    "index" : 0,
                    "texCoord" : 0
                },
                "metallicFactor" : 0,
                "roughnessFactor" : 1
            }
        }
    ],
    "meshes" : [
        {
            "name" : "Tile_+008_+012_L16",
            "primitives" : [
                {
                    "attributes" : {
                        "POSITION" : 0,
                        "NORMAL" : 1,
                        "TEXCOORD_0" : 2
                    },
                    "indices" : 3,
                    "material" : 0
                }
            ]
        }
    ],
    "textures" : [
        {
            "source" : 0
        }
    ],
    "images" : [
        {
            "mimeType" : "image/png",
            "name" : "Tile_+008_+012_L16",
            "uri" : "Tile_008_012_L16.png"
        }
    ],
    "accessors" : [
        {
            "bufferView" : 0,
            "componentType" : 5126,
            "count" : 7384,
            "max" : [
                120.72500610351562,
                12.608099937438965,
                114.89300537109375
            ],
            "min" : [
                -119.68798828125,
                0.1682800054550171,
                -120.30999755859375
            ],
            "type" : "VEC3"
        },
        {
            "bufferView" : 1,
            "componentType" : 5126,
            "count" : 7384,
            "type" : "VEC3"
        },
        {
            "bufferView" : 2,
            "componentType" : 5126,
            "count" : 7384,
            "type" : "VEC2"
        },
        {
            "bufferView" : 3,
            "componentType" : 5123,
            "count" : 15525,
            "type" : "SCALAR"
        }
    ],
    "bufferViews" : [
        {
            "buffer" : 0,
            "byteLength" : 88608,
            "byteOffset" : 0
        },
        {
            "buffer" : 0,
            "byteLength" : 88608,
            "byteOffset" : 88608
        },
        {
            "buffer" : 0,
            "byteLength" : 59072,
            "byteOffset" : 177216
        },
        {
            "buffer" : 0,
            "byteLength" : 31050,
            "byteOffset" : 236288
        }
    ],
    "buffers" : [
        {
            "byteLength" : 267340,
            "uri" : "Tile_008_012_L16.bin"
        }
    ]
}
