{
    "asset" : {
        "generator" : "Khronos glTF Blender I/O v1.3.48",
        "version" : "2.0"
    },
    "scene" : 0,
    "scenes" : [
        {
            "name" : "Scene",
            "nodes" : [
                0
            ]
        }
    ],
    "nodes" : [
        {
            "mesh" : 0,
            "name" : "Tile_+009_+015_L19"
        }
    ],
    "materials" : [
        {
            "doubleSided" : true,
            "emissiveFactor" : [
                0,
                0,
                0
            ],
            "name" : "Tile_+009_+015_L19",
            "pbrMetallicRoughness" : {
                "baseColorTexture" : {
                    "index" : 0,
                    "texCoord" : 0
                },
                "metallicFactor" : 0,
                "roughnessFactor" : 1
            }
        }
    ],
    "meshes" : [
        {
            "name" : "Tile_+009_+015_L19",
            "primitives" : [
                {
                    "attributes" : {
                        "POSITION" : 0,
                        "NORMAL" : 1,
                        "TEXCOORD_0" : 2
                    },
                    "indices" : 3,
                    "material" : 0
                }
            ]
        }
    ],
    "textures" : [
        {
            "source" : 0
        }
    ],
    "images" : [
        {
            "mimeType" : "image/png",
            "name" : "Tile_+009_+015_L19",
            "uri" : "Tile_009_015_L19.png"
        }
    ],
    "accessors" : [
        {
            "bufferView" : 0,
            "componentType" : 5126,
            "count" : 114,
            "max" : [
                103.66999816894531,
                4.568699836730957,
                -79.8299560546875
            ],
            "min" : [
                95.5,
                1.3128399848937988,
                -101.510009765625
            ],
            "type" : "VEC3"
        },
        {
            "bufferView" : 1,
            "componentType" : 5126,
            "count" : 114,
            "type" : "VEC3"
        },
        {
            "bufferView" : 2,
            "componentType" : 5126,
            "count" : 114,
            "type" : "VEC2"
        },
        {
            "bufferView" : 3,
            "componentType" : 5123,
            "count" : 204,
            "type" : "SCALAR"
        }
    ],
    "bufferViews" : [
        {
            "buffer" : 0,
            "byteLength" : 1368,
            "byteOffset" : 0
        },
        {
            "buffer" : 0,
            "byteLength" : 1368,
            "byteOffset" : 1368
        },
        {
            "buffer" : 0,
            "byteLength" : 912,
            "byteOffset" : 2736
        },
        {
            "buffer" : 0,
            "byteLength" : 408,
            "byteOffset" : 3648
        }
    ],
    "buffers" : [
        {
            "byteLength" : 4056,
            "uri" : "Tile_009_015_L19.bin"
        }
    ]
}
