{
    "asset" : {
        "generator" : "Khronos glTF Blender I/O v1.3.48",
        "version" : "2.0"
    },
    "scene" : 0,
    "scenes" : [
        {
            "name" : "Scene",
            "nodes" : [
                0
            ]
        }
    ],
    "nodes" : [
        {
            "mesh" : 0,
            "name" : "Tile_+013_+006_L18"
        }
    ],
    "materials" : [
        {
            "alphaCutoff" : 0.5,
            "alphaMode" : "MASK",
            "emissiveFactor" : [
                0,
                0,
                0
            ],
            "name" : "Tile_+013_+006_L18",
            "pbrMetallicRoughness" : {
                "baseColorTexture" : {
                    "index" : 0,
                    "texCoord" : 0
                },
                "metallicFactor" : 0,
                "roughnessFactor" : 1
            }
        }
    ],
    "meshes" : [
        {
            "name" : "Tile_+013_+006_L18",
            "primitives" : [
                {
                    "attributes" : {
                        "POSITION" : 0,
                        "NORMAL" : 1,
                        "TEXCOORD_0" : 2
                    },
                    "indices" : 3,
                    "material" : 0
                }
            ]
        }
    ],
    "textures" : [
        {
            "source" : 0
        }
    ],
    "images" : [
        {
            "mimeType" : "image/png",
            "name" : "Tile_+013_+006_L18",
            "uri" : "Tile_013_006_L18.png"
        }
    ],
    "accessors" : [
        {
            "bufferView" : 0,
            "componentType" : 5126,
            "count" : 75845,
            "max" : [
                109.302001953125,
                68.43150329589844,
                109.29302978515625
            ],
            "min" : [
                -111.3900146484375,
                24.031400680541992,
                -111.698974609375
            ],
            "type" : "VEC3"
        },
        {
            "bufferView" : 1,
            "componentType" : 5126,
            "count" : 75845,
            "type" : "VEC3"
        },
        {
            "bufferView" : 2,
            "componentType" : 5126,
            "count" : 75845,
            "type" : "VEC2"
        },
        {
            "bufferView" : 3,
            "componentType" : 5125,
            "count" : 120375,
            "type" : "SCALAR"
        }
    ],
    "bufferViews" : [
        {
            "buffer" : 0,
            "byteLength" : 910140,
            "byteOffset" : 0
        },
        {
            "buffer" : 0,
            "byteLength" : 910140,
            "byteOffset" : 910140
        },
        {
            "buffer" : 0,
            "byteLength" : 606760,
            "byteOffset" : 1820280
        },
        {
            "buffer" : 0,
            "byteLength" : 481500,
            "byteOffset" : 2427040
        }
    ],
    "buffers" : [
        {
            "byteLength" : 2908540,
            "uri" : "Tile_013_006_L18.bin"
        }
    ]
}
