{
    "asset" : {
        "generator" : "Khronos glTF Blender I/O v1.3.48",
        "version" : "2.0"
    },
    "scene" : 0,
    "scenes" : [
        {
            "name" : "Scene",
            "nodes" : [
                0
            ]
        }
    ],
    "nodes" : [
        {
            "mesh" : 0,
            "name" : "Tile_+012_+015_L17"
        }
    ],
    "materials" : [
        {
            "doubleSided" : true,
            "emissiveFactor" : [
                0,
                0,
                0
            ],
            "name" : "Tile_+012_+015_L17",
            "pbrMetallicRoughness" : {
                "baseColorTexture" : {
                    "index" : 0,
                    "texCoord" : 0
                },
                "metallicFactor" : 0,
                "roughnessFactor" : 1
            }
        }
    ],
    "meshes" : [
        {
            "name" : "Tile_+012_+015_L17",
            "primitives" : [
                {
                    "attributes" : {
                        "POSITION" : 0,
                        "NORMAL" : 1,
                        "TEXCOORD_0" : 2
                    },
                    "indices" : 3,
                    "material" : 0
                }
            ]
        }
    ],
    "textures" : [
        {
            "source" : 0
        }
    ],
    "images" : [
        {
            "mimeType" : "image/png",
            "name" : "Tile_+012_+015_L17",
            "uri" : "Tile_012_015_L17.png"
        }
    ],
    "accessors" : [
        {
            "bufferView" : 0,
            "componentType" : 5126,
            "count" : 9729,
            "max" : [
                56.753997802734375,
                21.412900924682617,
                107.02001953125
            ],
            "min" : [
                -107.57899475097656,
                -4.701479911804199,
                -120.47998046875
            ],
            "type" : "VEC3"
        },
        {
            "bufferView" : 1,
            "componentType" : 5126,
            "count" : 9729,
            "type" : "VEC3"
        },
        {
            "bufferView" : 2,
            "componentType" : 5126,
            "count" : 9729,
            "type" : "VEC2"
        },
        {
            "bufferView" : 3,
            "componentType" : 5123,
            "count" : 18339,
            "type" : "SCALAR"
        }
    ],
    "bufferViews" : [
        {
            "buffer" : 0,
            "byteLength" : 116748,
            "byteOffset" : 0
        },
        {
            "buffer" : 0,
            "byteLength" : 116748,
            "byteOffset" : 116748
        },
        {
            "buffer" : 0,
            "byteLength" : 77832,
            "byteOffset" : 233496
        },
        {
            "buffer" : 0,
            "byteLength" : 36678,
            "byteOffset" : 311328
        }
    ],
    "buffers" : [
        {
            "byteLength" : 348008,
            "uri" : "Tile_012_015_L17.bin"
        }
    ]
}
