{
    "asset" : {
        "generator" : "Khronos glTF Blender I/O v1.3.48",
        "version" : "2.0"
    },
    "scene" : 0,
    "scenes" : [
        {
            "name" : "Scene",
            "nodes" : [
                0
            ]
        }
    ],
    "nodes" : [
        {
            "mesh" : 0,
            "name" : "Tile_+008_+008_L15"
        }
    ],
    "materials" : [
        {
            "doubleSided" : true,
            "emissiveFactor" : [
                0,
                0,
                0
            ],
            "name" : "Tile_+008_+008_L15",
            "pbrMetallicRoughness" : {
                "baseColorTexture" : {
                    "index" : 0,
                    "texCoord" : 0
                },
                "metallicFactor" : 0,
                "roughnessFactor" : 1
            }
        }
    ],
    "meshes" : [
        {
            "name" : "Tile_+008_+008_L15",
            "primitives" : [
                {
                    "attributes" : {
                        "POSITION" : 0,
                        "NORMAL" : 1,
                        "TEXCOORD_0" : 2
                    },
                    "indices" : 3,
                    "material" : 0
                }
            ]
        }
    ],
    "textures" : [
        {
            "source" : 0
        }
    ],
    "images" : [
        {
            "mimeType" : "image/png",
            "name" : "Tile_+008_+008_L15",
            "uri" : "Tile_008_008_L15.png"
        }
    ],
    "accessors" : [
        {
            "bufferView" : 0,
            "componentType" : 5126,
            "count" : 12008,
            "max" : [
                114.00201416015625,
                25.619300842285156,
                119.99798583984375
            ],
            "min" : [
                -103.46197509765625,
                -2.6957499980926514,
                -120.1500015258789
            ],
            "type" : "VEC3"
        },
        {
            "bufferView" : 1,
            "componentType" : 5126,
            "count" : 12008,
            "type" : "VEC3"
        },
        {
            "bufferView" : 2,
            "componentType" : 5126,
            "count" : 12008,
            "type" : "VEC2"
        },
        {
            "bufferView" : 3,
            "componentType" : 5123,
            "count" : 19257,
            "type" : "SCALAR"
        }
    ],
    "bufferViews" : [
        {
            "buffer" : 0,
            "byteLength" : 144096,
            "byteOffset" : 0
        },
        {
            "buffer" : 0,
            "byteLength" : 144096,
            "byteOffset" : 144096
        },
        {
            "buffer" : 0,
            "byteLength" : 96064,
            "byteOffset" : 288192
        },
        {
            "buffer" : 0,
            "byteLength" : 38514,
            "byteOffset" : 384256
        }
    ],
    "buffers" : [
        {
            "byteLength" : 422772,
            "uri" : "Tile_008_008_L15.bin"
        }
    ]
}
