{
    "asset" : {
        "generator" : "Khronos glTF Blender I/O v1.3.48",
        "version" : "2.0"
    },
    "scene" : 0,
    "scenes" : [
        {
            "name" : "Scene",
            "nodes" : [
                0
            ]
        }
    ],
    "nodes" : [
        {
            "mesh" : 0,
            "name" : "Tile_+013_+012_L15"
        }
    ],
    "materials" : [
        {
            "doubleSided" : true,
            "emissiveFactor" : [
                0,
                0,
                0
            ],
            "name" : "Tile_+013_+012_L15",
            "pbrMetallicRoughness" : {
                "baseColorTexture" : {
                    "index" : 0,
                    "texCoord" : 0
                },
                "metallicFactor" : 0,
                "roughnessFactor" : 1
            }
        }
    ],
    "meshes" : [
        {
            "name" : "Tile_+013_+012_L15",
            "primitives" : [
                {
                    "attributes" : {
                        "POSITION" : 0,
                        "NORMAL" : 1,
                        "TEXCOORD_0" : 2
                    },
                    "indices" : 3,
                    "material" : 0
                }
            ]
        }
    ],
    "textures" : [
        {
            "source" : 0
        }
    ],
    "images" : [
        {
            "mimeType" : "image/png",
            "name" : "Tile_+013_+012_L15",
            "uri" : "Tile_013_012_L15.png"
        }
    ],
    "accessors" : [
        {
            "bufferView" : 0,
            "componentType" : 5126,
            "count" : 10225,
            "max" : [
                121.19598388671875,
                15.324899673461914,
                120.06600952148438
            ],
            "min" : [
                -119.27301025390625,
                -8.340399742126465,
                -114.26300048828125
            ],
            "type" : "VEC3"
        },
        {
            "bufferView" : 1,
            "componentType" : 5126,
            "count" : 10225,
            "type" : "VEC3"
        },
        {
            "bufferView" : 2,
            "componentType" : 5126,
            "count" : 10225,
            "type" : "VEC2"
        },
        {
            "bufferView" : 3,
            "componentType" : 5123,
            "count" : 17676,
            "type" : "SCALAR"
        }
    ],
    "bufferViews" : [
        {
            "buffer" : 0,
            "byteLength" : 122700,
            "byteOffset" : 0
        },
        {
            "buffer" : 0,
            "byteLength" : 122700,
            "byteOffset" : 122700
        },
        {
            "buffer" : 0,
            "byteLength" : 81800,
            "byteOffset" : 245400
        },
        {
            "buffer" : 0,
            "byteLength" : 35352,
            "byteOffset" : 327200
        }
    ],
    "buffers" : [
        {
            "byteLength" : 362552,
            "uri" : "Tile_013_012_L15.bin"
        }
    ]
}
