{
    "asset" : {
        "generator" : "Khronos glTF Blender I/O v1.3.48",
        "version" : "2.0"
    },
    "scene" : 0,
    "scenes" : [
        {
            "name" : "Scene",
            "nodes" : [
                0
            ]
        }
    ],
    "nodes" : [
        {
            "mesh" : 0,
            "name" : "Tile_+010_+005_L17"
        }
    ],
    "materials" : [
        {
            "doubleSided" : true,
            "emissiveFactor" : [
                0,
                0,
                0
            ],
            "name" : "Tile_+010_+005_L17",
            "pbrMetallicRoughness" : {
                "baseColorTexture" : {
                    "index" : 0,
                    "texCoord" : 0
                },
                "metallicFactor" : 0,
                "roughnessFactor" : 1
            }
        }
    ],
    "meshes" : [
        {
            "name" : "Tile_+010_+005_L17",
            "primitives" : [
                {
                    "attributes" : {
                        "POSITION" : 0,
                        "NORMAL" : 1,
                        "TEXCOORD_0" : 2
                    },
                    "indices" : 3,
                    "material" : 0
                }
            ]
        }
    ],
    "textures" : [
        {
            "source" : 0
        }
    ],
    "images" : [
        {
            "mimeType" : "image/png",
            "name" : "Tile_+010_+005_L17",
            "uri" : "Tile_010_005_L17.png"
        }
    ],
    "accessors" : [
        {
            "bufferView" : 0,
            "componentType" : 5126,
            "count" : 20957,
            "max" : [
                116.85659790039062,
                30.41860008239746,
                117.541015625
            ],
            "min" : [
                -111.27299499511719,
                3.700730085372925,
                -117.81402587890625
            ],
            "type" : "VEC3"
        },
        {
            "bufferView" : 1,
            "componentType" : 5126,
            "count" : 20957,
            "type" : "VEC3"
        },
        {
            "bufferView" : 2,
            "componentType" : 5126,
            "count" : 20957,
            "type" : "VEC2"
        },
        {
            "bufferView" : 3,
            "componentType" : 5123,
            "count" : 34884,
            "type" : "SCALAR"
        }
    ],
    "bufferViews" : [
        {
            "buffer" : 0,
            "byteLength" : 251484,
            "byteOffset" : 0
        },
        {
            "buffer" : 0,
            "byteLength" : 251484,
            "byteOffset" : 251484
        },
        {
            "buffer" : 0,
            "byteLength" : 167656,
            "byteOffset" : 502968
        },
        {
            "buffer" : 0,
            "byteLength" : 69768,
            "byteOffset" : 670624
        }
    ],
    "buffers" : [
        {
            "byteLength" : 740392,
            "uri" : "Tile_010_005_L17.bin"
        }
    ]
}
