{
    "asset" : {
        "generator" : "Khronos glTF Blender I/O v1.3.48",
        "version" : "2.0"
    },
    "scene" : 0,
    "scenes" : [
        {
            "name" : "Scene",
            "nodes" : [
                0
            ]
        }
    ],
    "nodes" : [
        {
            "mesh" : 0,
            "name" : "Tile_+010_+013_L16"
        }
    ],
    "materials" : [
        {
            "doubleSided" : true,
            "emissiveFactor" : [
                0,
                0,
                0
            ],
            "name" : "Tile_+010_+013_L16",
            "pbrMetallicRoughness" : {
                "baseColorTexture" : {
                    "index" : 0,
                    "texCoord" : 0
                },
                "metallicFactor" : 0,
                "roughnessFactor" : 1
            }
        }
    ],
    "meshes" : [
        {
            "name" : "Tile_+010_+013_L16",
            "primitives" : [
                {
                    "attributes" : {
                        "POSITION" : 0,
                        "NORMAL" : 1,
                        "TEXCOORD_0" : 2
                    },
                    "indices" : 3,
                    "material" : 0
                }
            ]
        }
    ],
    "textures" : [
        {
            "source" : 0
        }
    ],
    "images" : [
        {
            "mimeType" : "image/png",
            "name" : "Tile_+010_+013_L16",
            "uri" : "Tile_010_013_L16.png"
        }
    ],
    "accessors" : [
        {
            "bufferView" : 0,
            "componentType" : 5126,
            "count" : 13977,
            "max" : [
                113.32649993896484,
                13.595499992370605,
                110.7659912109375
            ],
            "min" : [
                -115.39700317382812,
                0.93088698387146,
                -114.31201171875
            ],
            "type" : "VEC3"
        },
        {
            "bufferView" : 1,
            "componentType" : 5126,
            "count" : 13977,
            "type" : "VEC3"
        },
        {
            "bufferView" : 2,
            "componentType" : 5126,
            "count" : 13977,
            "type" : "VEC2"
        },
        {
            "bufferView" : 3,
            "componentType" : 5123,
            "count" : 22734,
            "type" : "SCALAR"
        }
    ],
    "bufferViews" : [
        {
            "buffer" : 0,
            "byteLength" : 167724,
            "byteOffset" : 0
        },
        {
            "buffer" : 0,
            "byteLength" : 167724,
            "byteOffset" : 167724
        },
        {
            "buffer" : 0,
            "byteLength" : 111816,
            "byteOffset" : 335448
        },
        {
            "buffer" : 0,
            "byteLength" : 45468,
            "byteOffset" : 447264
        }
    ],
    "buffers" : [
        {
            "byteLength" : 492732,
            "uri" : "Tile_010_013_L16.bin"
        }
    ]
}
